<svg height="480pt" viewBox="0 0 480 480.10713" width="480pt" xmlns="http://www.w3.org/2000/svg" fill="white"><path d="m117.460938 12.109375c-9.015626-8.519531-21.1875-12.871094-33.558594-12-22.066406 1.980469-39.878906 18.871094-43.023438 40.800781-21.902344 3.183594-38.75 20.996094-40.714844 43.039063-.878906 12.386719 3.472657 24.574219 12 33.601562 6.9375 6.894531 16.339844 10.730469 26.121094 10.664063.609375 0 1.230469 0 1.847656-.050782h79.945313c4.417969 0 8-3.582031 8-8v-79.679687c.664063-10.539063-3.199219-20.859375-10.617187-28.375zm-5.382813 100h-72.375c-6.035156.484375-11.976563-1.683594-16.28125-5.9375-5.324219-5.84375-7.96875-13.640625-7.304687-21.519531 2.128906-16.257813 15.9375-28.449219 32.335937-28.542969 4.132813-.191406 7.4375-3.5 7.625-7.632813.097656-16.398437 12.296875-30.207031 28.558594-32.328124h1.6875c7.316406-.25 14.4375 2.386718 19.824219 7.34375 4.289062 4.421874 6.453124 10.480468 5.929687 16.617187zm0 0"/><path d="m136.878906 136.910156c-16.625 2.917969-32 13.597656-32.800781 30.855469-.679687 8.796875 2.414063 17.464844 8.503906 23.847656 5.835938 5.636719 13.679688 8.71875 21.792969 8.558594h1.695312 56c4.417969 0 8-3.578125 8-8v-55.664063c.675782-8.796874-2.417968-17.46875-8.511718-23.855468-6.410156-6.042969-15.0625-9.128906-23.847656-8.503906-17.234376.761718-27.90625 16.144531-30.832032 32.761718zm15.199219 7.589844c.535156-11.628906 6.808594-23.925781 16.375-24.375h1.097656c3.9375-.207031 7.796875 1.1875 10.695313 3.863281 2.953125 3.308594 4.347656 7.71875 3.832031 12.121094v48h-48.335937c-4.316407.683594-8.699219-.738281-11.792969-3.820313-3.097657-3.085937-4.535157-7.460937-3.871094-11.78125.445313-9.597656 12.742187-15.839843 24.375-16.375 4.128906-.1875 7.433594-3.492187 7.625-7.625zm0 0"/><path d="m346.421875 122.453125-224 224c-1.945313 1.949219-2.753906 4.757813-2.140625 7.441406.617188 2.683594 2.566406 4.859375 5.164062 5.765625l344 120c2.898438 1.011719 6.117188.273438 8.289063-1.894531 2.167969-2.171875 2.90625-5.390625 1.894531-8.289063l-120-344c-.90625-2.597656-3.085937-4.546874-5.769531-5.160156-2.679687-.617187-5.492187.191406-7.4375 2.136719zm-90.34375 112.984375c16.414063 7.175781 26.054687 24.386719 23.601563 42.128906-2.453126 17.742188-16.402344 31.695313-34.144532 34.144532-17.746094 2.453124-34.957031-7.1875-42.128906-23.601563zm16 156.671875c-.039063-17.777344 11.664063-33.449219 28.71875-38.464844 17.058594-5.011719 35.378906 1.835938 44.964844 16.808594 9.589843 14.972656 8.140625 34.476563-3.546875 47.871094l-16.042969-5.597657-54.046875-18.847656c-.03125-.605468-.046875-1.195312-.046875-1.769531zm174.398437 30.824219c-13.121093-3.222656-23.71875-12.863282-28.164062-25.621094-4.449219-12.757812-2.140625-26.898438 6.132812-37.578125zm-46.910156-134.480469c-13.847656 10.078125-32.574218 10.226563-46.578125.363281-14-9.863281-20.167969-27.546875-15.339843-43.980468 4.828124-16.429688 19.582031-27.964844 36.691406-28.6875zm-30.6875-87.832031c-22.683594 2.828125-41.371094 19.160156-47.214844 41.261718-5.839843 22.097657 2.335938 45.53125 20.660157 59.199219 18.324219 13.664063 43.117187 14.824219 62.632812 2.921875l13.519531 38.738282c-16.65625 15.0625-22.671874 38.632812-15.277343 59.835937 7.398437 21.203125 26.773437 35.914063 49.183593 37.347656l6.6875 19.199219-100.976562-35.199219c13.4375-19.425781 13.222656-45.199219-.53125-64.398437-13.757812-19.203125-38.09375-27.691406-60.808594-21.214844s-38.914062 26.523438-40.476562 50.09375l-113.519532-39.601562 48.863282-48.863282c9.878906 17.453125 28.402344 28.222656 48.457031 28.167969 30.910156-.039063 55.960937-25.089844 56-56 .046875-20.070313-10.746094-38.601563-28.226563-48.464844l80.867188-80.863281zm0 0"/><path d="m112.078125 216.109375c0-4.417969-3.582031-8-8-8-44.164063.046875-79.953125 35.835937-80 80 0 4.417969 3.582031 8 8 8s8-3.582031 8-8c.039063-35.328125 28.667969-63.960937 64-64 4.417969 0 8-3.582031 8-8zm0 0"/><path d="m96.078125 192.109375c0-4.417969-3.582031-8-8-8-31.511719 0-41.832031-13.167969-57.34375-36.441406-2.453125-3.675781-7.421875-4.667969-11.097656-2.214844s-4.667969 7.421875-2.214844 11.097656c17.007813 25.503907 32.023437 43.558594 70.65625 43.558594 4.417969 0 8-3.582031 8-8zm0 0"/><path d="m131.078125 255.527344c4.097656-1.648438 6.085937-6.308594 4.4375-10.410156-1.644531-4.101563-6.304687-6.085938-10.40625-4.441407-12.1875 5.160157-21.808594 14.976563-26.71875 27.265625-3.925781 13.773438-1.414063 28.582032 6.832031 40.289063 1.445313 2.503906 4.128906 4.035156 7.019532 4.003906 2.894531-.035156 5.542968-1.625 6.929687-4.164063 1.386719-2.539062 1.296875-5.628906-.238281-8.082031-5.667969-7.710937-7.648438-17.53125-5.417969-26.839843 3.382813-7.902344 9.667969-14.210938 17.5625-17.621094zm0 0"/><path d="m88.078125 316.109375c0-11.046875-8.957031-20-20-20-11.046875 0-20 8.953125-20 20s8.953125 20 20 20c11.042969 0 20-8.953125 20-20zm-24 0c0-2.207031 1.789063-4 4-4 2.207031 0 4 1.792969 4 4 0 2.210937-1.792969 4-4 4-2.210937 0-4-1.789063-4-4zm0 0"/><path d="m20.078125 232.109375c11.042969 0 20-8.953125 20-20s-8.957031-20-20-20c-11.046875 0-20 8.953125-20 20s8.953125 20 20 20zm0-24c2.207031 0 4 1.792969 4 4 0 2.210937-1.792969 4-4 4-2.210937 0-4-1.789063-4-4 0-2.207031 1.789063-4 4-4zm0 0"/><path d="m305.964844 40.332031c-40.800782-9.894531-78.519532 16.105469-89.664063 61.890625-1.042969 4.292969 1.59375 8.621094 5.886719 9.664063.621094.148437 1.253906.222656 1.890625.222656 3.6875-.003906 6.898437-2.527344 7.765625-6.113281 7.679688-31.535156 34.265625-58.847656 70.335938-50.109375 4.296874 1.042969 8.621093-1.59375 9.664062-5.890625 1.042969-4.292969-1.59375-8.621094-5.886719-9.664063zm0 0"/><path d="m169.964844.332031c-4.292969-1.042969-8.621094 1.59375-9.664063 5.890625-1.042969 4.292969 1.59375 8.621094 5.886719 9.664063 21.851562 5.320312 33.328125 32.695312 26.113281 62.335937-1.042969 4.292969 1.59375 8.621094 5.886719 9.664063.621094.148437 1.253906.222656 1.890625.222656 3.6875-.003906 6.898437-2.527344 7.765625-6.113281 9.335938-38.351563-7.300781-74.222656-37.878906-81.664063zm0 0"/><path d="m254.644531 140.675781c4.445313-5.910156 11.003907-9.871093 18.304688-11.054687 9.890625.101562 19.230469 4.558594 25.527343 12.183594 3.1875 2.804687 8.011719 2.632812 10.988282-.398438 2.980468-3.027344 3.070312-7.851562.210937-10.992188-9.5625-11.046874-23.601562-17.191406-38.207031-16.71875-11.996094 1.648438-22.808594 8.085938-29.976562 17.847657-2.523438 3.625-1.625 8.613281 2 11.132812 3.628906 2.523438 8.613281 1.628907 11.136718-2zm0 0"/><path d="m328.8125 72.675781c-10.734375-2.621093-21.558594 3.960938-24.175781 14.699219-2.609375 10.730469 3.972656 21.542969 14.703125 24.15625 10.730468 2.613281 21.546875-3.964844 24.164062-14.695312 2.613282-10.730469-3.960937-21.546876-14.691406-24.167969zm-.855469 20.378907c-.453125 1.851562-2.152343 3.128906-4.0625 3.042968-1.90625-.082031-3.488281-1.503906-3.777343-3.390625-.289063-1.882812.796874-3.710937 2.589843-4.363281s3.796875.054688 4.785157 1.6875c.550781.90625.71875 1.992188.464843 3.023438zm0 0"/><path d="m240.8125.675781c-10.734375-2.613281-21.554688 3.96875-24.171875 14.703125-2.613281 10.734375 3.964844 21.554688 14.699219 24.171875 10.734375 2.613281 21.554687-3.972656 24.167968-14.707031 2.613282-10.734375-3.96875-21.554688-14.703124-24.167969zm-.847656 20.378907c-.425782 1.757812-1.984375 3.011718-3.792969 3.054687s-3.421875-1.136719-3.933594-2.875c-.507812-1.734375.210938-3.597656 1.757813-4.539063 1.886718-1.148437 4.347656-.550781 5.496094 1.335938.554687.902344.722656 1.992188.472656 3.023438zm0 0"/><path d="m210.398438 210.429688c-1.464844 1.53125-2.296876 3.5625-2.320313 5.679687 0 4.417969 3.582031 8 8 8s8-3.582031 8-8c-.03125-2.117187-.859375-4.148437-2.320313-5.679687-.394531-.363282-.824218-.683594-1.28125-.960938-.410156-.316406-.867187-.558594-1.359374-.71875-.480469-.242188-.996094-.40625-1.527344-.480469-2.609375-.519531-5.304688.289063-7.191406 2.160157zm0 0"/><path d="m357.039062 55.46875c2.457032 1.054688 5.285157.796875 7.511719-.6875 2.226563-1.484375 3.554688-3.996094 3.527344-6.671875 0-4.417969-3.582031-8-8-8s-8 3.582031-8 8c-.023437 2.128906.8125 4.175781 2.320313 5.679687.777343.707032 1.667968 1.273438 2.640624 1.679688zm0 0"/><path d="m42.398438 402.429688c-.707032.777343-1.273438 1.671874-1.679688 2.640624-.855469 1.9375-.855469 4.140626 0 6.078126.40625.96875.972656 1.863281 1.679688 2.640624 2.289062 2.289063 5.742187 2.957032 8.71875 1.679688.96875-.40625 1.859374-.976562 2.640624-1.679688.703126-.777343 1.273438-1.671874 1.679688-2.640624.851562-1.9375.851562-4.140626 0-6.078126-.40625-.96875-.972656-1.863281-1.679688-2.640624-3.207031-2.960938-8.152343-2.960938-11.359374 0zm0 0"/><path d="m28.558594 345.46875c-.449219-.300781-.933594-.542969-1.441406-.71875-.480469-.242188-.996094-.40625-1.527344-.480469-3.738282-.820312-7.515625 1.222657-8.871094 4.800781-1.429688 3.347657-.414062 7.238282 2.46875 9.464844 2.878906 2.226563 6.898438 2.226563 9.78125 0 2.878906-2.226562 3.894531-6.117187 2.46875-9.464844-.40625-.96875-.972656-1.863281-1.679688-2.640624-.382812-.34375-.78125-.664063-1.199218-.960938zm0 0"/><path d="m411.117188 47.46875c.96875-.40625 1.859374-.976562 2.640624-1.679688.703126-.777343 1.273438-1.671874 1.679688-2.640624.851562-1.9375.851562-4.140626 0-6.078126-.40625-.96875-.972656-1.863281-1.679688-2.640624-.765624-.722657-1.664062-1.292969-2.640624-1.679688-1.945313-.808594-4.132813-.808594-6.078126 0-.980468.386719-1.875.957031-2.640624 1.679688-.707032.777343-1.273438 1.671874-1.679688 2.640624-.449219.949219-.667969 1.988282-.640625 3.039063-.027344 2.675781 1.296875 5.1875 3.527344 6.671875 2.226562 1.484375 5.050781 1.742188 7.511719.6875zm0 0"/></svg>