<svg height="512pt" viewBox="0 -23 512 512" width="512pt" xmlns="http://www.w3.org/2000/svg" fill="#039EA5"><path d="m142.71875 230.296875c-2.628906 0-5.199219-1.070313-7.070312-2.929687-.457032-.460938-.878907-.96875-1.238282-1.519532-.359375-.539062-.671875-1.121094-.921875-1.71875-.25-.613281-.4375-1.242187-.566406-1.882812-.132813-.640625-.191406-1.296875-.191406-1.949219 0-.648437.058593-1.308594.191406-1.949219.128906-.640625.316406-1.269531.566406-1.871094.25-.609374.5625-1.1875.921875-1.730468.371094-.546875.78125-1.058594 1.238282-1.519532 2.320312-2.320312 5.78125-3.390624 9.03125-2.730468.640624.132812 1.269531.320312 1.871093.570312.597657.25 1.179688.5625 1.730469.921875.539062.359375 1.058594.777344 1.519531 1.238281 1.859375 1.859376 2.929688 4.441407 2.929688 7.070313 0 .652344-.070313 1.308594-.199219 1.949219-.132812.640625-.320312 1.269531-.570312 1.882812-.25.597656-.5625 1.179688-.921876 1.71875-.359374.550782-.777343 1.058594-1.238281 1.519532-.460937.460937-.980469.878906-1.519531 1.25-.550781.359374-1.132812.671874-1.730469.921874-.601562.25-1.230469.4375-1.871093.566407-.648438.132812-1.300782.191406-1.960938.191406zm0 0"/><path d="m406.488281 275.128906c-37.527343 0-68.058593-30.53125-68.058593-68.058594 0-37.523437 30.53125-68.054687 68.058593-68.054687 37.53125 0 68.0625 30.527344 68.0625 68.054687 0 37.527344-30.53125 68.058594-68.0625 68.058594zm0-116.113281c-26.5 0-48.058593 21.558594-48.058593 48.058594 0 26.496093 21.558593 48.054687 48.058593 48.054687s48.0625-21.558594 48.0625-48.054687c0-26.5-21.5625-48.058594-48.0625-48.058594zm0 0"/><path d="m512 207.070312c0-54.859374-42.09375-100.078124-95.679688-105.050781v-31.097656c0-3.890625-2.253906-7.425781-5.78125-9.066406l-130.867187-60.921875c-.015625-.007813-1.09375-.433594-1.097656-.433594-2.414063-.792969-5.039063-.636719-7.339844.433594l-128.507813 58.984375-128.554687-59.003907c-3.800781-1.746093-8.371094-.9687495-11.398437 2.171876-1.847657 1.917968-2.773438 4.546874-2.773438 7.210937v385.199219c0 3.90625 2.277344 7.457031 5.828125 9.085937l132.726563 60.921875s.003906 0 .011718.003906c2.652344 1.164063 5.679688 1.164063 8.328125-.003906h.003907l128.523437-58.992187 126.679687 58.96875c1.339844.625 2.78125.933593 4.21875.933593 2.628907 0 5.246094-1.039062 7.214844-3.070312 1.855469-1.917969 2.785156-4.546875 2.785156-7.210938v-96.160156c18.8125-14.503906 95.679688-78.328125 95.679688-152.902344zm-492-181.476562 112.726562 51.738281v93.617188c0 5.523437 4.476563 10 10 10 5.519532 0 10-4.476563 10-10v-93.617188l112.722657-51.738281v363.488281l-112.722657 51.738281v-173.167968c0-5.523438-4.480468-10-10-10-5.523437 0-10 4.476562-10 10v173.167968l-112.726562-51.738281zm265.449219 363.523438v-363.433594l110.871093 51.613281v24.753906c-53.425781 5.132813-95.339843 50.273438-95.339843 105.019531 0 73.765626 75.996093 137.574219 95.339843 152.621094v81.035156zm121.050781-46.90625c-20.179688-16.199219-85.519531-73.414063-85.519531-135.140626 0-47.144531 38.359375-85.503906 85.507812-85.503906 47.152344 0 85.511719 38.359375 85.511719 85.503906 0 61.945313-65.324219 119-85.5 135.140626zm0 0"/><path d="m96.71875 128.660156c-3.902344-3.90625-10.238281-3.90625-14.140625 0l-6.214844 6.214844-6.214843-6.214844c-3.90625-3.90625-10.238282-3.90625-14.144532 0-3.902344 3.90625-3.902344 10.238282 0 14.140625l6.214844 6.214844-6.214844 6.210937c-3.902344 3.90625-3.90625 10.238282 0 14.144532 1.953125 1.953125 4.511719 2.929687 7.070313 2.929687 2.5625 0 5.121093-.976562 7.074219-2.929687l6.214843-6.214844 6.214844 6.214844c1.953125 1.953125 4.511719 2.929687 7.070313 2.929687 2.558593 0 5.117187-.976562 7.070312-2.929687 3.90625-3.90625 3.90625-10.238282 0-14.144532l-6.214844-6.210937 6.214844-6.214844c3.90625-3.90625 3.90625-10.234375 0-14.140625zm0 0"/></svg>