<svg xmlns="http://www.w3.org/2000/svg" width="1000" height="737.531" viewBox="0 0 947.5 737.531">
  <defs>
    <style>
      .cls-1 {
        fill: #ffffff;
      }
    </style>
  </defs>
  <path id="Exclusion_1" data-name="Exclusion 1" class="cls-1" d="M-9370.5-1232.471h-947v-.849l-.046.078c-.15.254-.3.509-.452.768l0,0V-1970l905.574,1.028c-.45.112-1,.28-1.62.5h43.546v736Zm-43.546-736H-10317.5v735.152c7.973-13.49,13.967-20.643,20.692-24.69,6.683-4.022,13.961-4.987,24.977-6.449h.008c5.206-.691,11.106-1.474,18.134-2.74,8.15-1.468,16.208-3.3,24.633-5.6a193.863,193.863,0,0,0,21-6.974,161.321,161.321,0,0,0,18.916-8.982,165.368,165.368,0,0,0,17.617-11.361,208.752,208.752,0,0,0,17.105-14.108c10.718-9.774,22.095-21.829,35.807-37.938,12.307-14.458,25.638-31.138,43.157-53.364a189.775,189.775,0,0,1,19-20.7,210.636,210.636,0,0,1,21.366-17.528,250.674,250.674,0,0,1,23.3-14.787c7.7-4.326,16.049-8.523,24.818-12.474,33.909-15.281,70.485-25.472,105.857-35.328,27.249-7.592,52.987-14.764,75.956-23.8,19.955-7.853,40.09-20.477,59.845-37.522,18.475-15.94,36.467-35.6,53.477-58.423,31.956-42.882,59.189-95.422,76.685-147.942a185.01,185.01,0,0,1,17.153-36.53,279.436,279.436,0,0,1,24.841-34.569c16.787-20.14,37.624-40.391,61.932-60.191a601.911,601.911,0,0,1,60.244-43.156c8.117-5.07,15.978-9.66,22.733-13.276a117.883,117.883,0,0,1,14.2-6.719Z" transform="translate(10318.001 1970.001)"/>
</svg>
