<svg height="512pt" viewBox="0 0 512 512.00023" width="512pt" xmlns="http://www.w3.org/2000/svg" fill="white"><path d="m504.3125 129.089844c-.058594-.03125-170.398438-63.980469-170.464844-64.007813 15.699219-35.476562-17.25-74.207031-55.34375-63.164062-4.023437 1.171875-6.335937 5.375-5.164062 9.394531 1.160156 4.011719 5.363281 6.335938 9.386718 5.164062 19.910157-5.800781 39.898438 9.21875 39.898438 29.945313 0 31.140625-40.050781 42.503906-57.015625 17.460937-6.785156-10.011718-6.953125-22.683593-1.453125-32.574218 2.03125-3.660156.707031-8.265625-2.953125-10.304688-3.65625-2.03125-8.273437-.707031-10.304687 2.949219-11.515626 20.738281-5.519532 47.296875 14.710937 60.933594v39.664062c0 4.183594 3.394531 7.578125 7.578125 7.578125 4.191406 0 7.578125-3.394531 7.578125-7.578125v-33.027343c7.210937 1.726562 15.246094 1.71875 22.964844-.414063v225.460937c-3.308594 0-15.320313-.023437-22.964844-.023437v-161.683594c0-4.191406-3.386719-7.578125-7.578125-7.578125-4.183594 0-7.578125 3.386719-7.578125 7.578125v161.683594c-13.71875 0-26.015625 2.378906-38.917969 9.773437-3.375-6.710937-10.324218-11.328124-18.335937-11.328124h-37.605469c-11.308594 0-20.511719 9.195312-20.511719 20.5v12.125h-127.40625c-12.597656 0-22.832031 10.246093-22.832031 22.832031v92.042969c0 12.601562 10.234375 22.835937 22.832031 22.835937h127.40625v6.160156c0 11.308594 9.203125 20.511719 20.511719 20.511719h37.605469c6.878906 0 12.980469-3.40625 16.699219-8.628906 17.816406 9.070312 17.789062 7.0625 145.5625 7.0625 22.558593 0 33.433593-27.605469 17.953124-43.332032 9.667969-9.820312 9.683594-25.925781.039063-35.765624 9.636719-9.855469 9.625-25.917969 0-35.738282 14.664063-14.960937 5.648437-40.847656-15.226563-43.140625 3.4375-15.234375-9.746093-35.886719-31.25-35.886719h-23.246093v-96.882812l61.972656-23.269531c3.921875-1.464844 5.902344-5.828125 4.425781-9.75-1.464844-3.917969-5.839844-5.898438-9.75-4.433594l-56.648437 21.265625v-119.753906c2.300781-1.699219 4.433593-3.609375 6.382812-5.691406l163.878907 61.523437-85.242188 32.007813c-3.910156 1.464843-5.902344 5.839843-4.425781 9.757812 1.464843 3.910156 5.839843 5.902344 9.761719 4.425781.117187-.042969 94.949218-35.640625 95.0625-35.695312 9.496093-3.734375 9.523437-17.214844.007812-20.984375zm-354.074219 341.082031h-127.40625c-4.230469 0-7.675781-3.445313-7.675781-7.679687v-92.042969c0-4.230469 3.445312-7.675781 7.675781-7.675781h127.40625zm62.175781 24.785156c-2.101562 2.519531-.726562 1.886719-41.664062 1.886719-2.953125 0-5.355469-2.402344-5.355469-5.355469 0-18.828125 0-149.675781 0-155.996093 0-2.949219 2.402344-5.34375 5.355469-5.34375h37.605469c2.703125 0 5.351562 2.160156 5.351562 5.605468 0 168.492188.558594 157.050782-1.292969 159.203125zm16.449219-6.789062v-38.113281c13.207031-2.128907 25.644531-6.796876 36.746094-13.496094 0 54.09375-.316406 53.160156.910156 58.71875-12.851562 0-23.960937 1.117187-37.65625-7.109375zm61.347657 7.109375h-7.699219c-2.328125-4.207032-1.746094-4.664063-1.746094-69.84375 2.695313-2.382813 5.273437-4.910156 7.707031-7.566406.859375 5.191406 3.316406 9.859374 6.851563 13.46875-9.753907 9.929687-9.519531 26.074218.039062 35.765624-7.625 7.730469-9.097656 19.128907-5.152343 28.175782zm80.40625 0c-5.894532 0-49.710938 0-57.296876 0-7 0-11.652343-6.878906-9.589843-13.496094 1.273437-4.09375 5.09375-7.0625 9.589843-7.0625h57.296876c5.535156 0 10.039062 4.503906 10.039062 10.042969 0 6.511719-4.851562 10.515625-10.039062 10.515625zm-1.40625-35.792969c-16.421876 0-39.289063 0-55.890626 0-6.894531 0-11.695312-6.761719-9.589843-13.511719 1.273437-4.089844 5.09375-7.0625 9.589843-7.0625h57.296876c12.710937 0 14.546874 20.574219-1.40625 20.574219zm-65.933594-46.265625c0-5.511719 4.480468-10.042969 10.042968-10.042969h57.296876c5.136718 0 10.039062 3.949219 10.039062 10.519531 0 5.546876-4.503906 10.050782-10.039062 10.050782-4.4375 0-5.878907 0-5.839844 0-7.175782 0-22.1875 0-51.457032 0-5.140624 0-10.042968-3.941406-10.042968-10.527344zm67.339844-45.757812c5.136718 0 10.039062 3.949218 10.039062 10.515624 0 5.539063-4.503906 10.042969-10.039062 10.042969-62.570313 0-59.167969.515625-62.378907-1.382812-2.132812-1.253907-3.761719-3.261719-4.507812-5.65625v-6.457031c2.523437-8.105469 10.789062-7.0625 15.15625-7.0625zm-28.484376-35.738282c15.742188 0 21.035157 20.570313 12.558594 20.570313h-7.910156c.132812 0 .261719 0 .382812.011719-37.148437 0-38.828124-.78125-45.789062 3.019531-12.425781 6.671875-16.359375 21.832031-10.808594 33.472656-12.421875 23.753906-35.226562 40.820313-61.703125 45.871094 0-26.511719 0-61.785157 0-91.730469 9.730469-7.0625 21.683594-11.234375 34.585938-11.234375 28.378906 0 78.546875.019531 78.683593.019531zm0 0"/></svg>